<svg width="257" height="255" viewBox="0 0 257 255" fill="none" xmlns="http://www.w3.org/2000/svg">
<path d="M163.254 46.5275L93.5698 87.0074L93.3551 6.4194L163.254 46.5275Z" fill="#97D902"/>
<path d="M93.5702 87.0372L23.8863 127.517L23.6717 46.9292L93.5702 87.0372Z" fill="#A5ED00"/>
<path d="M23.6715 46.8993L93.3554 6.41939L93.57 87.0074L23.6715 46.8993Z" fill="#97D902"/>
<path d="M23.8863 127.547L93.5702 87.0669L93.7849 167.655L23.8863 127.547Z" fill="#A5ED00"/>
<path d="M93.4363 167.166L23.3145 206.883L23.98 126.297L93.4363 167.166Z" fill="#3C88CA"/>
<path d="M163 208L92.7704 247.782L93.4359 167.196L163 208Z" fill="#3E8DD1"/>
<path d="M93.4363 167.166L163.558 127.45L163 208L93.4363 167.166Z" fill="#3E8DD1"/>
<path d="M23.3142 206.912L93.436 167.196L92.7705 247.782L23.3142 206.912Z" fill="#3C88CA"/>
<path d="M232.616 86.8082L162.955 127.326L162.696 46.7385L232.616 86.8082Z" fill="#333333"/>
<path d="M232.876 167.456L163 208L162.955 127.386L232.876 167.456Z" fill="#404040"/>
<path d="M162.955 127.356L232.617 86.8382L232.876 167.426L162.955 127.356Z" fill="#404040"/>
<path d="M93.0343 87.2568L162.696 46.7386L162.955 127.326L93.0343 87.2568Z" fill="#333333"/>
</svg>
